<?xml version="1.0" encoding="utf-8"?>
<svg xmlns="http://www.w3.org/2000/svg" viewBox="0 0 48 48" width="480" height="480">
  <path fill="#BBDEFB" d="M26.4,24C29,21.4,33,17.1,33,13.8c0-5-4-7.9-9-7.9c-5,0-9,2.9-9,7.9c0,3.3,4,7.7,6.6,10.3C19,26.6,15,30.9,15,34.3c0,5,4,7.9,9,7.9c5,0,9-2.9,9-7.9C33,30.9,29,26.6,26.4,24z" />
  <path fill="#FFF" d="M28.2,39.9c0,0,0,0,0.1-0.1s0.2-0.3,0.2-0.4c0.2-0.4,0.4-0.9,0.6-1.5c0.1-0.3,0.2-0.6,0.3-1c0.1-0.4,0.1-0.8,0.2-1.1c0-0.4,0.1-0.8,0-1.2c0-0.4-0.1-0.8-0.2-1.2s-0.2-0.8-0.3-1.2c-0.1-0.4-0.3-0.7-0.5-1.1c-0.2-0.3-0.4-0.6-0.6-0.9s-0.4-0.5-0.6-0.7c-0.4-0.5-0.8-0.8-1-1C26.1,28.1,26,28,26,28s0.1,0.2,0.3,0.4c0.2,0.3,0.5,0.6,0.7,1.2c0.1,0.3,0.3,0.5,0.4,0.8s0.2,0.6,0.3,0.9c0.1,0.3,0.2,0.7,0.2,1s0.1,0.7,0,1c0,0.3,0,0.7-0.1,1c0,0.3-0.2,0.6-0.2,0.9c-0.1,0.3-0.2,0.6-0.4,0.8c-0.1,0.3-0.3,0.5-0.4,0.7c-0.3,0.4-0.5,0.7-0.7,0.9C26,37.9,25.9,38,25.9,38c-0.1,0.1-0.1,0.1-0.1,0.1L28.2,39.9z" />
  <path fill="#6D4C41" d="M33,43c0,0.6-0.4,1-1,1H16c-0.6,0-1-0.4-1-1v-4c0-0.6,0.4-1,1-1h16c0.6,0,1,0.4,1,1V43z M33,5c0-0.6-0.4-1-1-1H16c-0.6,0-1,0.4-1,1v4c0,0.6,0.4,1,1,1h16c0.6,0,1-0.4,1-1V5z" />
  <path fill="#8D6E63" d="M36,43c0,0.6-0.4,1-1,1H13c-0.6,0-1-0.4-1-1v-1c0-0.6,0.4-1,1-1h22c0.6,0,1,0.4,1,1V43z M36,5c0-0.6-0.4-1-1-1H13c-0.6,0-1,0.4-1,1v1c0,0.6,0.4,1,1,1h22c0.6,0,1-0.4,1-1V5z" />
  <path fill="#FF9800" d="M17,14c0.2,2.5,3.8,6.6,7,9.5c3.1-2.8,6.7-7,7-9.5H17z" />
</svg>